<?xml version="1.0" encoding="iso-8859-1"?> 
<svg width="41px" height="44px" viewBox="0 0 41 44" version="1.1" xmlns="http://www.w3.org/2000/svg" xmlns:xlink="http://www.w3.org/1999/xlink">
    <g stroke="none" stroke-width="1" fill="none" fill-rule="evenodd">
        <g transform="translate(0.067000, 0.000000)" fill="#000000" fill-rule="nonzero">
            <path d="M35.3846119,13.8461642 L27.6923285,13.8461642 C26.8426283,13.8461642 26.1538358,14.5349568 26.1538358,15.384657 C26.1538358,16.2343571 26.8426283,16.9231497 27.6923285,16.9231497 L35.3846119,16.9231497 C36.2343121,16.9231497 36.9231047,17.6119423 36.9231047,18.4616425 L36.9231047,38.4616875 C36.9231047,39.3113877 36.2343121,40.0001803 35.3846119,40.0001803 L4.61538808,40.0001803 C3.76568792,40.0001803 3.07689534,39.3113877 3.07689534,38.4616875 L3.07689534,18.4615523 C3.07689534,17.6118522 3.76568792,16.9230596 4.61538808,16.9230596 L12.3076715,16.9230596 C13.1573717,16.9230596 13.8461642,16.234267 13.8461642,15.3845668 C13.8461642,14.5348667 13.1573717,13.8461642 12.3076715,13.8461642 L4.61538808,13.8461642 C2.06637775,13.8461642 0,15.912542 0,18.4615523 L0,38.4615974 C0,41.0106077 2.06637775,43.0769855 4.61538808,43.0769855 L35.3846119,43.0769855 C37.9336222,43.0769855 40,41.0106077 40,38.4615974 L40,18.4615523 C40,15.912542 37.9336222,13.8461642 35.3846119,13.8461642 Z" id="Path"></path>
            <path d="M28.7452139,21.9892593 C28.1489995,21.4135077 27.2038365,21.4135077 26.6077123,21.9892593 L21.5384477,27.0553689 L21.5384477,1.53849274 C21.5384477,0.688792585 20.8496551,0 19.9999549,0 C19.1502548,0 18.4614622,0.688792585 18.4614622,1.53849274 L18.4614622,27.055459 L13.3952625,21.9892593 C12.7840841,21.3989944 11.8101651,21.4158514 11.2199003,22.0270298 C10.6440585,22.6232442 10.6440585,23.5684973 11.2199003,24.1646215 L18.9121837,31.8569049 C19.5122743,32.4584378 20.4863736,32.4596999 21.0879065,31.8596093 C21.0888079,31.8587078 21.0897094,31.8578064 21.0907009,31.8569049 L28.7829844,24.1646215 C29.3733394,23.5534432 29.3563922,22.5795242 28.7452139,21.9892593 Z" id="Path"></path>
        </g>
    </g>
</svg>