<?xml version="1.0" encoding="iso-8859-1"?>
<!-- Generator: Adobe Illustrator 16.0.0, SVG Export Plug-In . SVG Version: 6.00 Build 0)  -->
<!DOCTYPE svg PUBLIC "-//W3C//DTD SVG 1.1//EN" "http://www.w3.org/Graphics/SVG/1.1/DTD/svg11.dtd">
<svg width="60px" height="60px" viewBox="0 0 60 60" version="1.1" xmlns="http://www.w3.org/2000/svg" xmlns:xlink="http://www.w3.org/1999/xlink">
	<g  stroke="none" stroke-width="1" fill="none" fill-rule="evenodd">
		<g fill="#000000" fill-rule="nonzero">
			<path d="M30,0 C13.4314066,0 0,13.4314066 0,30 C0,46.5685934 13.4314066,60 30,60 C46.5685934,60 60,46.5685934 60,30 C60,13.4314066 46.5685934,0 30,0 Z M41.4451151,15.2777494 L37.2957545,15.2795908 C34.0419437,15.2795908 33.4127877,16.8257801 33.4127877,19.0944246 L33.4127877,24.0969821 L41.1719693,24.0969821 L41.1682864,31.9322762 L33.4134015,31.9322762 L33.4134015,52.0394885 L25.3203069,52.0394885 L25.3203069,31.9322762 L18.5548849,31.9322762 L18.5548849,24.0969821 L25.3203069,24.0969821 L25.3203069,18.3185678 C25.3203069,11.6126854 29.4174936,7.96051151 35.3990793,7.96051151 L41.4457289,7.96971867 L41.4457289,15.2777494 L41.4451151,15.2777494 Z" id="Shape"></path>
		</g>
	</g>
</svg>
