<?xml version="1.0" encoding="iso-8859-1"?>
<!-- Generator: Adobe Illustrator 19.0.0, SVG Export Plug-In . SVG Version: 6.00 Build 0)  -->
<svg width="80px" height="65px" viewBox="0 0 80 65" version="1.1" xmlns="http://www.w3.org/2000/svg" xmlns:xlink="http://www.w3.org/1999/xlink">
	<g stroke="none" stroke-width="1" fill="none" fill-rule="evenodd">
		<g transform="translate(-0.000000, 0.000000)" fill="#000000" fill-rule="nonzero">
			<path d="M80,7.695 C77.025,9 73.855,9.865 70.55,10.285 C73.95,8.255 76.545,5.065 77.765,1.22 C74.595,3.11 71.095,4.445 67.365,5.19 C64.355,1.985 60.065,0 55.385,0 C46.305,0 38.995,7.37 38.995,16.405 C38.995,17.705 39.105,18.955 39.375,20.145 C25.74,19.48 13.675,12.945 5.57,2.99 C4.155,5.445 3.325,8.255 3.325,11.28 C3.325,16.96 6.25,21.995 10.61,24.91 C7.975,24.86 5.39,24.095 3.2,22.89 C3.2,22.94 3.2,23.005 3.2,23.07 C3.2,31.04 8.885,37.66 16.34,39.185 C15.005,39.55 13.55,39.725 12.04,39.725 C10.99,39.725 9.93,39.665 8.935,39.445 C11.06,45.94 17.09,50.715 24.26,50.87 C18.68,55.235 11.595,57.865 3.925,57.865 C2.58,57.865 1.29,57.805 0,57.64 C7.265,62.325 15.875,65 25.16,65 C55.34,65 71.84,40 71.84,18.33 C71.84,17.605 71.815,16.905 71.78,16.21 C75.035,13.9 77.77,11.015 80,7.695 Z" id="Path"></path>
		</g>
	</g>
</svg>
